<?xml version="1.0" encoding="utf-8"?>
<!-- Generator: Adobe Illustrator 24.1.0, SVG Export Plug-In . SVG Version: 6.00 Build 0)  -->
<svg version="1.1" id="Layer_1" xmlns="http://www.w3.org/2000/svg" xmlns:xlink="http://www.w3.org/1999/xlink" x="0px" y="0px"
	 viewBox="0 0 437.6 135.8" style="enable-background:new 0 0 437.6 135.8;" xml:space="preserve">
<style type="text/css">
	.st0{fill:#164B91;}
	.st1{fill:#6D6E71;}
	.st2{fill:#FFB31A;}
	.st3{fill:#FFFFFF;}
	.st4{fill:#0047B3;}
	.st5{fill:#098C8C;}
	.st6{fill:#FFAB00;}
</style>
<g>
	<path class="st2" d="M120.7,0h15.2v98c0,8.4-6.8,15.2-15.2,15.2h0V0z"/>
	<g>
		<path class="st2" d="M147.1,89.6V23.8h15.2v65.8H147.1z M146.7,17.9V0h15.9v17.9H146.7z"/>
	</g>
	<g>
		<path class="st2" d="M203.7,90.5c-9.5,0-17.3-3.4-23.3-10c-5.8-6.5-8.7-14.5-8.7-23.9c0-9.4,2.9-17.4,8.7-23.9
			c6-6.6,14-10,23.9-10c6.9,0,12.8,1.9,17.6,5.8v-4.8h15.2v65.8h-15.2v-4.7C217.1,88.6,211,90.5,203.7,90.5z M204.9,37.1
			c-5.5,0-9.8,1.8-13.2,5.6c-3.2,3.6-4.8,8.2-4.8,13.9c0,5.7,1.6,10.2,4.8,13.9c3.4,3.8,7.7,5.6,13.2,5.6c5.5,0,9.7-1.8,12.9-5.6
			c3.1-3.7,4.6-8.2,4.6-14c0-5.7-1.5-10.3-4.6-13.9C214.6,39,210.4,37.1,204.9,37.1z"/>
	</g>
	<g>
		<path class="st2" d="M275.1,90.5c-8.7,0-15.7-2.3-21-6.7c-4.9-4-7.6-9.4-8-15.9l-0.2-3.3h15.4l0.3,2.8c0.4,4.2,2.7,6.9,7.2,8.4
			c1.7,0.5,3.4,0.8,5.1,0.8c1.9,0,3.6-0.1,5.2-0.3c1.5-0.2,3-0.6,4.4-1.1c3.3-1.3,3.7-3.2,3.7-4.8c0-1.4-0.5-2.3-1.5-3.1
			c-1.7-1.1-3.8-2.1-6.4-2.8c-2.8-0.8-6-1.5-9.3-2.2c-3.6-0.7-7.1-1.7-10.2-3c-3.3-1.4-6.2-3.3-8.4-5.6c-2.5-2.6-3.8-6.3-3.8-10.7
			c0-6.4,2.4-11.5,7.1-15.1c4.5-3.4,11-5.1,19.3-5.1c8,0,14.5,2,19.3,6c4.1,3.5,6.5,8.1,7.2,13.7L301,46h-15.3l-0.3-2.7
			c-0.2-1.8-0.8-6.6-11.9-6.6c-10.6,0-10.6,4-10.6,5.5c0,1.3,0.4,2.1,1.5,2.8c1.7,1.1,3.8,2,6.5,2.7c2.9,0.8,6,1.5,9.4,2.2
			c3.6,0.7,7.1,1.7,10.2,3c3.4,1.4,6.2,3.4,8.4,5.8c2.5,2.7,3.7,6.4,3.7,10.9c0,6.8-2.7,12.2-7.9,15.8
			C289.7,88.8,283.1,90.5,275.1,90.5z"/>
	</g>
	<g>
		<path class="st2" d="M341.3,90.5c-9.5,0-17.3-3.4-23.3-10c-5.8-6.5-8.7-14.5-8.7-23.9c0-9.4,2.9-17.4,8.7-23.9
			c6-6.6,14-10,23.9-10c6.9,0,12.8,1.9,17.6,5.8v-4.8h15.2v65.8h-15.2v-4.7C354.6,88.6,348.5,90.5,341.3,90.5z M342.5,37.1
			c-5.5,0-9.8,1.8-13.2,5.6c-3.2,3.6-4.8,8.2-4.8,13.9c0,5.7,1.6,10.2,4.8,13.9c3.4,3.8,7.7,5.6,13.2,5.6c5.5,0,9.7-1.8,12.9-5.6
			c3.1-3.7,4.6-8.2,4.6-14c0-5.7-1.5-10.3-4.6-13.9C352.2,39,348,37.1,342.5,37.1z"/>
	</g>
	<g>
		<polygon class="st2" points="384.4,89.6 384.4,76.9 416.5,38.2 384.9,38.2 384.9,23.8 437.6,23.8 437.6,36.4 405.3,75 437.6,75 
			437.6,89.6 		"/>
	</g>
</g>
<g>
	<g>
		<rect x="22.6" y="98.1" class="st2" width="45.3" height="15.1"/>
	</g>
	<g>
		<polygon class="st2" points="30.2,120.7 60.4,120.7 45.3,135.8 		"/>
	</g>
	<path class="st2" d="M75.4,0H15.1C6.8,0,0,6.8,0,15.1v60.4c0,8.3,6.8,15.1,15.1,15.1h0V75.4V15.1h60.4v60.4H30.2L15.1,90.5h60.4
		c8.3,0,15.1-6.8,15.1-15.1V15.1C90.5,6.8,83.8,0,75.4,0z"/>
</g>
</svg>
