<svg id="Group_39" data-name="Group 39" xmlns="http://www.w3.org/2000/svg" xmlns:xlink="http://www.w3.org/1999/xlink" width="260.847" height="139.832" viewBox="0 0 260.847 139.832">
  <defs>
    <clipPath id="clip-path">
      <rect id="Rectangle_35" data-name="Rectangle 35" width="260.847" height="139.832" fill="none"/>
    </clipPath>
  </defs>
  <g id="Group_35" data-name="Group 35">
    <g id="Group_34" data-name="Group 34" clip-path="url(#clip-path)">
      <path id="Path_16" data-name="Path 16" d="M22.8,353c-1.727-3.385-4.007-5.112-6.7-5.112a4.376,4.376,0,0,0-4.629,4.422c0,3.04,3.316,5.319,7.254,7.185,5.8,2.556,13.472,6.149,13.4,14.508,0,9.4-6.08,15.061-15.475,15.061a16.479,16.479,0,0,1-10.915-3.869A16.94,16.94,0,0,1,0,375.517l7.254-4.56c1.865,6.563,5.043,9.81,9.6,9.81,4.215,0,6.287-2.073,6.287-6.287,0-2.832-3.109-5.043-7.185-6.77-5.734-2.418-13.2-6.08-13.057-14.992a12.866,12.866,0,0,1,13.2-13.126c6.563,0,11.192,2.9,13.955,8.774Z" transform="translate(0 -266.279)" fill="#fff"/>
      <path id="Path_17" data-name="Path 17" d="M246.99,342.152h9.534l-12.643,48.36h-9.119l-8.774-28.463-8.774,28.463h-9.12l-12.643-48.36h9.534l8.083,35.579,9.05-30.467h7.738l9.05,30.467Z" transform="translate(-153.256 -268.286)" fill="#fff"/>
      <path id="Path_18" data-name="Path 18" d="M543.2,342.152H573.11v8.29H552.177V360.6h16.788v8.29H552.177v13.333H573.8v8.29H543.2Z" transform="translate(-425.927 -268.286)" fill="#fff"/>
      <path id="Path_19" data-name="Path 19" d="M759.867,390.513v-48.36H775c11.4,0,22.522,7.323,22.522,24.18S786.4,390.513,775,390.513Zm8.981-8.29h3.316a18.4,18.4,0,0,0,10.916-3.109c3.316-2.211,5.32-6.632,5.32-12.781s-2-10.57-5.32-12.781a18.4,18.4,0,0,0-10.916-3.109h-3.316Z" transform="translate(-595.821 -268.287)" fill="#fff"/>
      <path id="Path_20" data-name="Path 20" d="M1019.847,339.593c8.359,0,15.337,3.247,19.551,10.915a27.8,27.8,0,0,1,3.247,13.817c0,10.777-4.767,18.653-11.468,22.176a24.412,24.412,0,0,1-11.33,2.556c-8.359,0-15.268-3.247-19.62-10.915a27.8,27.8,0,0,1-3.178-13.817c0-10.777,4.767-18.722,11.468-22.107a24.445,24.445,0,0,1,11.33-2.625m0,8.29a12.941,12.941,0,0,0-9.81,4.145c-2.556,2.763-3.869,6.839-3.869,12.3s1.313,9.534,3.869,12.3a12.941,12.941,0,0,0,9.81,4.145,12.69,12.69,0,0,0,9.741-4.145c2.625-2.763,3.938-6.84,3.938-12.3s-1.312-9.534-3.938-12.3a12.69,12.69,0,0,0-9.741-4.145" transform="translate(-781.799 -266.279)" fill="#fff"/>
      <rect id="Rectangle_32" data-name="Rectangle 32" width="24.581" height="24.581" transform="translate(94 0)" fill="#fff"/>
      <rect id="Rectangle_33" data-name="Rectangle 33" width="24.581" height="24.581" transform="translate(143.162 0)" fill="#fff01e"/>
      <rect id="Rectangle_34" data-name="Rectangle 34" width="24.581" height="24.581" transform="translate(118.581 24.581)" fill="#fff"/>
    </g>
  </g>
  <path id="Path_21" data-name="Path 21" d="M115.647,626.471v.544h1.412V631h.57v-3.989h1.412v-.544Z" transform="translate(-90.681 -491.224)" fill="#fff"/>
  <path id="Path_22" data-name="Path 22" d="M143.412,626.471v1.852h-1.995v-1.852h-.57V631h.57v-2.137h1.995V631h.57v-4.533Z" transform="translate(-110.44 -491.224)" fill="#fff"/>
  <path id="Path_23" data-name="Path 23" d="M166.136,626.471V631h2.94v-.544h-2.37v-1.6h1.982v-.544h-1.982v-1.3h2.305v-.544Z" transform="translate(-130.27 -491.224)" fill="#fff"/>
  <g id="Group_37" data-name="Group 37">
    <g id="Group_36" data-name="Group 36" clip-path="url(#clip-path)">
      <path id="Path_24" data-name="Path 24" d="M216.967,627.455a.976.976,0,0,0-.92-.68c-.5,0-.816.259-.816.7a.52.52,0,0,0,.246.479,3.462,3.462,0,0,0,.8.291,2.849,2.849,0,0,1,.745.266.939.939,0,0,1,.544.913,1.342,1.342,0,0,1-1.5,1.444,1.6,1.6,0,0,1-1.69-1.347l.531-.207a1.149,1.149,0,0,0,1.159,1.01c.57,0,.933-.285.933-.822a.584.584,0,0,0-.162-.414.616.616,0,0,0-.22-.123,3.383,3.383,0,0,0-.648-.2,2.952,2.952,0,0,1-.732-.253,1.053,1.053,0,0,1-.576-1.017,1.2,1.2,0,0,1,.369-.907,1.39,1.39,0,0,1,1.017-.356,1.45,1.45,0,0,1,1.418.971Z" transform="translate(-168.095 -491.036)" fill="#fff"/>
      <path id="Path_25" data-name="Path 25" d="M241.161,626.471h.589L241.316,631h-.706l-.667-2.662L239.276,631h-.706l-.434-4.533h.589l.272,3.691.687-2.765h.518l.687,2.765Z" transform="translate(-186.725 -491.224)" fill="#fff"/>
      <path id="Path_26" data-name="Path 26" d="M264.536,626.471h2.876v.544h-2.306v1.3h1.982v.544h-1.982v1.6h2.37V631h-2.94Z" transform="translate(-207.426 -491.224)" fill="#fff"/>
      <path id="Path_27" data-name="Path 27" d="M288.746,626.471h1.146a1.922,1.922,0,0,1,1.464.576,2.87,2.87,0,0,1,0,3.381,1.922,1.922,0,0,1-1.464.576h-1.146Zm.57.544v3.445h.518c.952,0,1.464-.505,1.464-1.723s-.512-1.723-1.464-1.723Z" transform="translate(-226.409 -491.224)" fill="#fff"/>
      <path id="Path_28" data-name="Path 28" d="M316.675,631h-2.759v-.492h1.095v-3.549h-1.095v-.492h2.759v.492h-1.095v3.549h1.095Z" transform="translate(-246.146 -491.224)" fill="#fff"/>
      <path id="Path_29" data-name="Path 29" d="M339.966,627.455a.976.976,0,0,0-.92-.68c-.5,0-.816.259-.816.7a.52.52,0,0,0,.246.479,3.468,3.468,0,0,0,.8.291,2.849,2.849,0,0,1,.745.266.939.939,0,0,1,.544.913,1.342,1.342,0,0,1-1.5,1.444,1.6,1.6,0,0,1-1.69-1.347l.531-.207a1.149,1.149,0,0,0,1.159,1.01c.57,0,.933-.285.933-.822a.584.584,0,0,0-.162-.414.616.616,0,0,0-.22-.123,3.382,3.382,0,0,0-.648-.2,2.953,2.953,0,0,1-.732-.253,1.053,1.053,0,0,1-.576-1.017,1.2,1.2,0,0,1,.369-.907,1.391,1.391,0,0,1,1.017-.356,1.45,1.45,0,0,1,1.418.971Z" transform="translate(-264.54 -491.036)" fill="#fff"/>
      <path id="Path_30" data-name="Path 30" d="M364.81,626.471h.57V631h-.57v-2.137h-1.995V631h-.57v-4.533h.57v1.852h1.995Z" transform="translate(-284.041 -491.224)" fill="#fff"/>
      <path id="Path_31" data-name="Path 31" d="M411.745,626.471h1.146a1.922,1.922,0,0,1,1.464.576,2.87,2.87,0,0,1,0,3.381,1.922,1.922,0,0,1-1.464.576h-1.146Zm.57.544v3.445h.518c.952,0,1.464-.505,1.464-1.723s-.512-1.723-1.464-1.723Z" transform="translate(-322.855 -491.224)" fill="#fff"/>
      <path id="Path_32" data-name="Path 32" d="M436.735,626.471h2.875v.544h-2.305v1.3h1.982v.544h-1.982v1.6h2.37V631h-2.94Z" transform="translate(-342.45 -491.224)" fill="#fff"/>
      <path id="Path_33" data-name="Path 33" d="M462.423,626.471h.589L461.425,631h-.544l-1.587-4.533h.589l1.269,3.724Z" transform="translate(-360.139 -491.224)" fill="#fff"/>
      <path id="Path_34" data-name="Path 34" d="M485.935,626.471h2.875v.544h-2.305v1.3h1.982v.544h-1.982v1.6h2.37V631h-2.94Z" transform="translate(-381.028 -491.224)" fill="#fff"/>
      <path id="Path_35" data-name="Path 35" d="M514.677,631H511.8v-4.533h.57v3.989h2.312Z" transform="translate(-401.305 -491.224)" fill="#fff"/>
      <path id="Path_36" data-name="Path 36" d="M535.306,626.231a1.568,1.568,0,0,1,1.269.6,2.619,2.619,0,0,1,.492,1.716,2.65,2.65,0,0,1-.492,1.723,1.65,1.65,0,0,1-2.539,0,2.65,2.65,0,0,1-.492-1.723,2.62,2.62,0,0,1,.492-1.716,1.568,1.568,0,0,1,1.269-.6m0,.544a1.006,1.006,0,0,0-.855.434,2.248,2.248,0,0,0-.317,1.341,2.283,2.283,0,0,0,.317,1.347,1.069,1.069,0,0,0,1.71,0,2.283,2.283,0,0,0,.317-1.347,2.247,2.247,0,0,0-.317-1.341,1,1,0,0,0-.855-.434" transform="translate(-418.359 -491.036)" fill="#fff"/>
      <path id="Path_37" data-name="Path 37" d="M560.544,629.062V631h-.57v-4.534h1.716a1.3,1.3,0,1,1,0,2.591Zm1.133-.544a.752.752,0,1,0,0-1.5h-1.133v1.5Z" transform="translate(-439.083 -491.224)" fill="#fff"/>
      <path id="Path_38" data-name="Path 38" d="M583.614,626.471h.609l.965,2.513.965-2.513h.609V631h-.57v-3.322l-.79,2.021h-.427l-.79-2.021V631h-.57Z" transform="translate(-457.619 -491.224)" fill="#fff"/>
      <path id="Path_39" data-name="Path 39" d="M608.934,626.471h2.876v.544H609.5v1.3h1.982v.544H609.5v1.6h2.37V631h-2.94Z" transform="translate(-477.473 -491.224)" fill="#fff"/>
      <path id="Path_40" data-name="Path 40" d="M635.454,626.471h.57V631H635.4l-1.9-3.5V631h-.57v-4.533h.621l1.9,3.5Z" transform="translate(-496.292 -491.224)" fill="#fff"/>
      <path id="Path_41" data-name="Path 41" d="M656.844,627.015v-.544h3.393v.544h-1.412V631h-.57v-3.989Z" transform="translate(-515.04 -491.224)" fill="#fff"/>
      <path id="Path_42" data-name="Path 42" d="M706.786,626.471h.544L708.943,631h-.589l-.408-1.211h-1.775L705.763,631h-.589Zm.272.738-.7,2.04h1.4Z" transform="translate(-552.936 -491.224)" fill="#fff"/>
      <path id="Path_43" data-name="Path 43" d="M734.872,631h-2.759v-.492h1.095v-3.549h-1.095v-.492h2.759v.492h-1.095v3.549h1.095Z" transform="translate(-574.059 -491.224)" fill="#fff"/>
      <path id="Path_44" data-name="Path 44" d="M756.143,626.471h1.146a1.922,1.922,0,0,1,1.464.576,2.87,2.87,0,0,1,0,3.381,1.922,1.922,0,0,1-1.464.576h-1.146Zm.57.544v3.445h.518c.952,0,1.464-.505,1.464-1.723s-.512-1.723-1.464-1.723Z" transform="translate(-592.901 -491.224)" fill="#fff"/>
      <path id="Path_45" data-name="Path 45" d="M805.9,626.231a1.568,1.568,0,0,1,1.269.6,2.619,2.619,0,0,1,.492,1.716,2.65,2.65,0,0,1-.492,1.723,1.65,1.65,0,0,1-2.539,0,2.651,2.651,0,0,1-.492-1.723,2.62,2.62,0,0,1,.492-1.716,1.568,1.568,0,0,1,1.269-.6m0,.544a1,1,0,0,0-.855.434,2.248,2.248,0,0,0-.317,1.341,2.283,2.283,0,0,0,.317,1.347,1.069,1.069,0,0,0,1.71,0,2.283,2.283,0,0,0,.317-1.347,2.247,2.247,0,0,0-.317-1.341,1,1,0,0,0-.855-.434" transform="translate(-630.539 -491.036)" fill="#fff"/>
      <path id="Path_46" data-name="Path 46" d="M832.658,631l-1.328-2.137h-.758V631H830v-4.533h1.587c.829,0,1.334.414,1.334,1.2a1.072,1.072,0,0,1-.945,1.159L833.332,631Zm-2.085-3.989v1.308h1.03c.486,0,.732-.22.732-.654s-.246-.654-.732-.654Z" transform="translate(-650.816 -491.224)" fill="#fff"/>
      <path id="Path_47" data-name="Path 47" d="M856.528,630.816l-.032-.609a1.2,1.2,0,0,1-1.14.661,1.676,1.676,0,0,1-1.308-.6,3.092,3.092,0,0,1,0-3.445,1.736,1.736,0,0,1,1.347-.6,1.621,1.621,0,0,1,1.626,1.38l-.538.162c-.207-.674-.525-1-1.088-1-.8,0-1.282.576-1.282,1.774s.479,1.775,1.282,1.775c.615,0,.958-.414,1.017-1.25h-1.017v-.544H857v2.286Z" transform="translate(-669.258 -491.036)" fill="#fff"/>
      <path id="Path_48" data-name="Path 48" d="M878.985,626.471h.544L881.141,631h-.589l-.408-1.211h-1.774L877.961,631h-.589Zm.272.738-.7,2.04h1.4Z" transform="translate(-687.959 -491.224)" fill="#fff"/>
      <path id="Path_49" data-name="Path 49" d="M906.051,626.471h.57V631H906l-1.9-3.5V631h-.57v-4.533h.622l1.9,3.5Z" transform="translate(-708.471 -491.224)" fill="#fff"/>
      <path id="Path_50" data-name="Path 50" d="M931.671,631h-2.759v-.492h1.095v-3.549h-1.095v-.492h2.759v.492h-1.095v3.549h1.095Z" transform="translate(-728.372 -491.224)" fill="#fff"/>
      <path id="Path_51" data-name="Path 51" d="M952.883,627.015v-.544h2.953v.272l-2.221,3.717h2.293V631h-3.115v-.272l2.221-3.717Z" transform="translate(-747.096 -491.224)" fill="#fff"/>
      <path id="Path_52" data-name="Path 52" d="M977.385,626.471h.544L979.541,631h-.589l-.408-1.211h-1.774L976.361,631h-.589Zm.272.738-.7,2.04h1.4Z" transform="translate(-765.115 -491.224)" fill="#fff"/>
      <path id="Path_53" data-name="Path 53" d="M1001.242,627.015v-.544h3.393v.544h-1.412V631h-.57v-3.989Z" transform="translate(-785.087 -491.224)" fill="#fff"/>
      <path id="Path_54" data-name="Path 54" d="M1030.07,631h-2.759v-.492h1.095v-3.549h-1.095v-.492h2.759v.492h-1.094v3.549h1.094Z" transform="translate(-805.528 -491.224)" fill="#fff"/>
      <path id="Path_55" data-name="Path 55" d="M1051.9,626.231a1.568,1.568,0,0,1,1.269.6,2.619,2.619,0,0,1,.492,1.716,2.65,2.65,0,0,1-.492,1.723,1.65,1.65,0,0,1-2.539,0,2.649,2.649,0,0,1-.492-1.723,2.618,2.618,0,0,1,.492-1.716,1.567,1.567,0,0,1,1.269-.6m0,.544a1,1,0,0,0-.855.434,2.245,2.245,0,0,0-.318,1.341,2.281,2.281,0,0,0,.318,1.347,1.068,1.068,0,0,0,1.71,0,2.283,2.283,0,0,0,.317-1.347,2.248,2.248,0,0,0-.317-1.341,1,1,0,0,0-.855-.434" transform="translate(-823.429 -491.036)" fill="#fff"/>
      <path id="Path_56" data-name="Path 56" d="M1078.251,626.471h.57V631h-.622l-1.9-3.5V631h-.57v-4.533h.622l1.9,3.5Z" transform="translate(-843.495 -491.224)" fill="#fff"/>
    </g>
  </g>
</svg>
